<svg xmlns="http://www.w3.org/2000/svg" width="210" height="314" viewBox="0 0 210 314">
  <defs>
    <style>
      .cls-1 {
        fill: #edb2b2;
        opacity: 0;
      }
    </style>
  </defs>
  <g id="HOL235458_Updated_CTA" transform="translate(-262 -283)">
    <rect id="bounding_box" data-name="bounding box" class="cls-1" width="210" height="314" transform="translate(262 283)"/>
    <g id="Outline" transform="translate(0 -4)">
      <path id="Path_10" data-name="Path 10" d="M4.308,0,7.356-8.568H6.168L3.7-1.14H3.672L1.224-8.568H0L3.012,0ZM8.316-8.568V0h1.14V-8.568ZM16.332-6.06h1.08a3.02,3.02,0,0,0-.27-1.218,2.373,2.373,0,0,0-.672-.846,2.772,2.772,0,0,0-.99-.492,4.578,4.578,0,0,0-1.224-.156,4.4,4.4,0,0,0-1.146.15,3.151,3.151,0,0,0-1,.456,2.308,2.308,0,0,0-.7.78,2.27,2.27,0,0,0-.264,1.122,1.873,1.873,0,0,0,.234.978,1.9,1.9,0,0,0,.624.636,3.626,3.626,0,0,0,.882.4q.492.15,1,.264l1,.222a4.568,4.568,0,0,1,.882.282,1.72,1.72,0,0,1,.624.45,1.075,1.075,0,0,1,.234.72,1.4,1.4,0,0,1-.192.768,1.4,1.4,0,0,1-.5.474,2.28,2.28,0,0,1-.7.246,4.256,4.256,0,0,1-.774.072,3.662,3.662,0,0,1-.936-.12,2.329,2.329,0,0,1-.8-.372,1.909,1.909,0,0,1-.552-.642,1.935,1.935,0,0,1-.21-.93h-1.08a3.013,3.013,0,0,0,.282,1.35,2.588,2.588,0,0,0,.768.936,3.364,3.364,0,0,0,1.128.546,5.024,5.024,0,0,0,1.362.18A5.209,5.209,0,0,0,15.606.054,3.421,3.421,0,0,0,16.68-.39a2.518,2.518,0,0,0,.786-.792,2.151,2.151,0,0,0,.306-1.17,2.149,2.149,0,0,0-.234-1.056,2.085,2.085,0,0,0-.624-.7,3.305,3.305,0,0,0-.882-.438q-.492-.162-1-.282t-1-.222a5.247,5.247,0,0,1-.882-.258,1.735,1.735,0,0,1-.624-.4.893.893,0,0,1-.234-.642,1.391,1.391,0,0,1,.162-.7,1.26,1.26,0,0,1,.432-.45,1.88,1.88,0,0,1,.618-.24,3.485,3.485,0,0,1,.708-.072,2.419,2.419,0,0,1,1.458.414A1.785,1.785,0,0,1,16.332-6.06ZM19.2-8.568V0h1.14V-8.568Zm5,.96V0h1.14V-7.608H28.2v-.96H21.348v.96Zm10.224,0V0h1.14V-7.608h2.856v-.96H31.572v.96Zm4.944-.96V0h1.14V-3.924h4.512V0h1.14V-8.568h-1.14v3.684H40.512V-8.568Zm8.664,0V0h5.952V-.96H49.176V-3.924h4.452v-.96H49.176V-7.608h4.776v-.96Zm17.076,7.5L65.412,0h.72V-4.512H62.376v.96h2.736a2.913,2.913,0,0,1-.156,1.1,2.5,2.5,0,0,1-.534.888,2.492,2.492,0,0,1-.87.594,3.055,3.055,0,0,1-1.188.216A2.721,2.721,0,0,1,61.1-1.038a2.764,2.764,0,0,1-.918-.756,3.369,3.369,0,0,1-.564-1.092,4.323,4.323,0,0,1-.192-1.29,5.356,5.356,0,0,1,.168-1.338,3.586,3.586,0,0,1,.522-1.164,2.692,2.692,0,0,1,.912-.822,2.7,2.7,0,0,1,1.338-.312,3.492,3.492,0,0,1,.906.114,2.493,2.493,0,0,1,.762.342,2.008,2.008,0,0,1,.564.582,2.242,2.242,0,0,1,.312.846h1.14a3.464,3.464,0,0,0-.45-1.29,3.027,3.027,0,0,0-.816-.882,3.325,3.325,0,0,0-1.1-.51,5.164,5.164,0,0,0-1.314-.162,3.964,3.964,0,0,0-1.782.378A3.732,3.732,0,0,0,59.31-7.38,4.387,4.387,0,0,0,58.542-5.9a6.076,6.076,0,0,0-.258,1.782A4.821,4.821,0,0,0,58.56-2.5a4.174,4.174,0,0,0,.8,1.38,3.878,3.878,0,0,0,1.284.954,4,4,0,0,0,1.716.354,4.052,4.052,0,0,0,1.5-.294A2.849,2.849,0,0,0,65.112-1.068Zm2.748-7.5V0H69V-8.568Zm3.06,0V0h1.14V-3.924H76v-.96H72.06V-7.608h4.488v-.96Zm8.832.96V0h1.14V-7.608h2.856v-.96H76.9v.96ZM92.988-6.06h1.08a3.02,3.02,0,0,0-.27-1.218,2.373,2.373,0,0,0-.672-.846,2.772,2.772,0,0,0-.99-.492,4.578,4.578,0,0,0-1.224-.156,4.4,4.4,0,0,0-1.146.15,3.151,3.151,0,0,0-1,.456,2.308,2.308,0,0,0-.7.78A2.27,2.27,0,0,0,87.8-6.264a1.874,1.874,0,0,0,.234.978,1.9,1.9,0,0,0,.624.636,3.627,3.627,0,0,0,.882.4q.492.15,1,.264l1,.222a4.568,4.568,0,0,1,.882.282,1.72,1.72,0,0,1,.624.45,1.075,1.075,0,0,1,.234.72,1.4,1.4,0,0,1-.192.768,1.4,1.4,0,0,1-.5.474,2.28,2.28,0,0,1-.7.246,4.256,4.256,0,0,1-.774.072,3.662,3.662,0,0,1-.936-.12,2.329,2.329,0,0,1-.8-.372,1.909,1.909,0,0,1-.552-.642,1.935,1.935,0,0,1-.21-.93H87.54a3.013,3.013,0,0,0,.282,1.35,2.589,2.589,0,0,0,.768.936,3.364,3.364,0,0,0,1.128.546,5.024,5.024,0,0,0,1.362.18A5.209,5.209,0,0,0,92.262.054,3.42,3.42,0,0,0,93.336-.39a2.518,2.518,0,0,0,.786-.792,2.151,2.151,0,0,0,.306-1.17,2.149,2.149,0,0,0-.234-1.056,2.085,2.085,0,0,0-.624-.7,3.305,3.305,0,0,0-.882-.438q-.492-.162-1-.282t-1-.222A5.247,5.247,0,0,1,89.8-5.3a1.735,1.735,0,0,1-.624-.4.893.893,0,0,1-.234-.642,1.391,1.391,0,0,1,.162-.7,1.26,1.26,0,0,1,.432-.45,1.88,1.88,0,0,1,.618-.24,3.485,3.485,0,0,1,.708-.072,2.419,2.419,0,0,1,1.458.414A1.785,1.785,0,0,1,92.988-6.06Zm2.82-2.508V0h1.14V-3.924h4.512V0h1.14V-8.568h-1.14v3.684H96.948V-8.568Zm9.324,4.284a4.939,4.939,0,0,1,.168-1.278,3.471,3.471,0,0,1,.528-1.134,2.7,2.7,0,0,1,.924-.81,2.779,2.779,0,0,1,1.344-.306,2.779,2.779,0,0,1,1.344.306,2.7,2.7,0,0,1,.924.81,3.471,3.471,0,0,1,.528,1.134,4.939,4.939,0,0,1,.168,1.278,4.939,4.939,0,0,1-.168,1.278,3.471,3.471,0,0,1-.528,1.134,2.7,2.7,0,0,1-.924.81,2.779,2.779,0,0,1-1.344.306,2.779,2.779,0,0,1-1.344-.306,2.7,2.7,0,0,1-.924-.81,3.471,3.471,0,0,1-.528-1.134A4.939,4.939,0,0,1,105.132-4.284Zm-1.14,0A5.522,5.522,0,0,0,104.25-2.6a4.249,4.249,0,0,0,.774,1.434,3.714,3.714,0,0,0,1.284.99A4.113,4.113,0,0,0,108.1.192a4.113,4.113,0,0,0,1.788-.366,3.714,3.714,0,0,0,1.284-.99,4.249,4.249,0,0,0,.774-1.434,5.521,5.521,0,0,0,.258-1.686,5.521,5.521,0,0,0-.258-1.686,4.249,4.249,0,0,0-.774-1.434,3.778,3.778,0,0,0-1.284-1,4.057,4.057,0,0,0-1.788-.372,4.057,4.057,0,0,0-1.788.372,3.778,3.778,0,0,0-1.284,1,4.249,4.249,0,0,0-.774,1.434A5.522,5.522,0,0,0,103.992-4.284Zm10.74-.18V-7.608h2.232a2.1,2.1,0,0,1,1.422.4,1.487,1.487,0,0,1,.45,1.17,1.506,1.506,0,0,1-.45,1.176,2.036,2.036,0,0,1-1.422.4Zm-1.14-4.1V0h1.14V-3.5h2.616a2.61,2.61,0,0,0,1.962-.66,2.544,2.544,0,0,0,.666-1.872A2.523,2.523,0,0,0,119.31-7.9a2.66,2.66,0,0,0-1.962-.666Z" transform="translate(262 594)"/>
      <path id="Path_9" data-name="Path 9" d="M122.5.5H0v-1H122.5Z" transform="translate(262 600.5)"/>
    </g>
  </g>
</svg>
