<svg xmlns="http://www.w3.org/2000/svg" width="210" height="314" viewBox="0 0 210 314">
  <defs>
    <style>
      .cls-1 {
        fill: #edb2b2;
        opacity: 0;
      }
    </style>
  </defs>
  <g id="HOL235456_CTA" transform="translate(-262 -283)">
    <rect id="bounding_box" data-name="bounding box" class="cls-1" width="210" height="314" transform="translate(262 283)"/>
    <g id="Outline" transform="translate(0 -4)">
      <path id="Path_7" data-name="Path 7" d="M8.676,0l2.292-8.568H9.828L8.088-1.44H8.064l-1.9-7.128H4.932L3.012-1.44H2.988L1.308-8.568H.144L2.34,0H3.528l1.98-7.2h.024L7.488,0Zm4.032-4.284a4.939,4.939,0,0,1,.168-1.278A3.471,3.471,0,0,1,13.4-6.7a2.7,2.7,0,0,1,.924-.81,2.779,2.779,0,0,1,1.344-.306,2.779,2.779,0,0,1,1.344.306,2.7,2.7,0,0,1,.924.81,3.471,3.471,0,0,1,.528,1.134,4.939,4.939,0,0,1,.168,1.278,4.939,4.939,0,0,1-.168,1.278,3.471,3.471,0,0,1-.528,1.134,2.7,2.7,0,0,1-.924.81,2.779,2.779,0,0,1-1.344.306,2.779,2.779,0,0,1-1.344-.306,2.7,2.7,0,0,1-.924-.81,3.471,3.471,0,0,1-.528-1.134A4.939,4.939,0,0,1,12.708-4.284Zm-1.14,0A5.521,5.521,0,0,0,11.826-2.6,4.249,4.249,0,0,0,12.6-1.164a3.714,3.714,0,0,0,1.284.99,4.113,4.113,0,0,0,1.788.366A4.113,4.113,0,0,0,17.46-.174a3.714,3.714,0,0,0,1.284-.99A4.249,4.249,0,0,0,19.518-2.6a5.522,5.522,0,0,0,.258-1.686,5.522,5.522,0,0,0-.258-1.686A4.249,4.249,0,0,0,18.744-7.4a3.778,3.778,0,0,0-1.284-1,4.057,4.057,0,0,0-1.788-.372,4.057,4.057,0,0,0-1.788.372,3.778,3.778,0,0,0-1.284,1,4.249,4.249,0,0,0-.774,1.434A5.521,5.521,0,0,0,11.568-4.284Zm9.624-4.284V0h1.08V-7.128H22.3L24.972,0h.972L28.62-7.128h.024V0h1.08V-8.568h-1.56l-2.712,7.2-2.7-7.2Zm10.428,0V0h5.952V-.96H32.76V-3.924h4.452v-.96H32.76V-7.608h4.776v-.96Zm7.32,0V0h1.08V-6.876h.024L44.52,0h1.248V-8.568h-1.08V-1.62h-.024L40.152-8.568Zm8.736,0v1.332h.708a2.925,2.925,0,0,1-.03.414,1.228,1.228,0,0,1-.114.378.769.769,0,0,1-.216.27.533.533,0,0,1-.336.1v.6a1.156,1.156,0,0,0,.594-.144A1.247,1.247,0,0,0,48.69-6a1.72,1.72,0,0,0,.24-.558,2.839,2.839,0,0,0,.078-.678V-8.568ZM55.908-6.06h1.08a3.02,3.02,0,0,0-.27-1.218,2.373,2.373,0,0,0-.672-.846,2.772,2.772,0,0,0-.99-.492,4.578,4.578,0,0,0-1.224-.156,4.4,4.4,0,0,0-1.146.15,3.151,3.151,0,0,0-1,.456,2.308,2.308,0,0,0-.7.78,2.27,2.27,0,0,0-.264,1.122,1.873,1.873,0,0,0,.234.978,1.9,1.9,0,0,0,.624.636,3.626,3.626,0,0,0,.882.4q.492.15,1,.264l1,.222a4.568,4.568,0,0,1,.882.282,1.72,1.72,0,0,1,.624.45,1.075,1.075,0,0,1,.234.72,1.4,1.4,0,0,1-.192.768,1.4,1.4,0,0,1-.5.474,2.28,2.28,0,0,1-.7.246,4.256,4.256,0,0,1-.774.072,3.662,3.662,0,0,1-.936-.12,2.329,2.329,0,0,1-.8-.372,1.909,1.909,0,0,1-.552-.642,1.935,1.935,0,0,1-.21-.93H50.46a3.013,3.013,0,0,0,.282,1.35,2.588,2.588,0,0,0,.768.936,3.364,3.364,0,0,0,1.128.546A5.024,5.024,0,0,0,54,.192,5.209,5.209,0,0,0,55.182.054,3.421,3.421,0,0,0,56.256-.39a2.518,2.518,0,0,0,.786-.792,2.151,2.151,0,0,0,.306-1.17,2.149,2.149,0,0,0-.234-1.056,2.085,2.085,0,0,0-.624-.7,3.305,3.305,0,0,0-.882-.438q-.492-.162-1-.282t-1-.222a5.247,5.247,0,0,1-.882-.258,1.735,1.735,0,0,1-.624-.4.893.893,0,0,1-.234-.642,1.391,1.391,0,0,1,.162-.7,1.26,1.26,0,0,1,.432-.45,1.88,1.88,0,0,1,.618-.24,3.485,3.485,0,0,1,.708-.072,2.419,2.419,0,0,1,1.458.414A1.785,1.785,0,0,1,55.908-6.06Zm6.144-2.508V0h1.08V-6.876h.024L67.632,0H68.88V-8.568H67.8V-1.62h-.024L63.264-8.568Zm8.676,0V0H76.68V-.96H71.868V-3.924H76.32v-.96H71.868V-7.608h4.776v-.96ZM85.8,0l2.292-8.568h-1.14L85.212-1.44h-.024l-1.9-7.128H82.056L80.136-1.44h-.024l-1.68-7.128H77.268L79.464,0h1.188l1.98-7.2h.024L84.612,0Zm8.184-3.54,1.452-4h.024l1.428,4Zm.852-5.028L91.5,0h1.164l.96-2.58h3.624L98.184,0h1.26L96.1-8.568Zm5.448,0V0h1.14V-3.66h2.784a1.513,1.513,0,0,1,.672.126,1.125,1.125,0,0,1,.408.336,1.393,1.393,0,0,1,.228.492q.072.282.12.594a4.183,4.183,0,0,1,.072.636q.012.324.024.606a3.7,3.7,0,0,0,.054.51.716.716,0,0,0,.162.36h1.272a1.465,1.465,0,0,1-.27-.5,3.9,3.9,0,0,1-.138-.594,5.525,5.525,0,0,1-.06-.636q-.012-.324-.036-.636a5.516,5.516,0,0,0-.1-.6,1.821,1.821,0,0,0-.2-.522,1.315,1.315,0,0,0-.372-.4,1.527,1.527,0,0,0-.606-.24v-.024a1.822,1.822,0,0,0,1.134-.8,2.6,2.6,0,0,0,.354-1.368,2.065,2.065,0,0,0-.69-1.644,2.821,2.821,0,0,0-1.914-.6ZM103.8-4.62h-2.376V-7.608h2.832a1.479,1.479,0,0,1,1.164.408,1.537,1.537,0,0,1,.36,1.056,1.572,1.572,0,0,1-.162.762,1.282,1.282,0,0,1-.432.468,1.65,1.65,0,0,1-.63.234A4.6,4.6,0,0,1,103.8-4.62Zm4.7-3.948V0h1.14V-3.66h2.784a1.513,1.513,0,0,1,.672.126,1.125,1.125,0,0,1,.408.336,1.393,1.393,0,0,1,.228.492q.072.282.12.594a4.183,4.183,0,0,1,.072.636q.012.324.024.606a3.7,3.7,0,0,0,.054.51.716.716,0,0,0,.162.36h1.272a1.465,1.465,0,0,1-.27-.5,3.9,3.9,0,0,1-.138-.594,5.525,5.525,0,0,1-.06-.636q-.012-.324-.036-.636a5.516,5.516,0,0,0-.1-.6,1.821,1.821,0,0,0-.2-.522,1.315,1.315,0,0,0-.372-.4,1.527,1.527,0,0,0-.606-.24v-.024a1.822,1.822,0,0,0,1.134-.8,2.6,2.6,0,0,0,.354-1.368,2.065,2.065,0,0,0-.69-1.644,2.821,2.821,0,0,0-1.914-.6ZM112.02-4.62h-2.376V-7.608h2.832a1.479,1.479,0,0,1,1.164.408A1.537,1.537,0,0,1,114-6.144a1.572,1.572,0,0,1-.162.762,1.282,1.282,0,0,1-.432.468,1.65,1.65,0,0,1-.63.234A4.6,4.6,0,0,1,112.02-4.62Zm4.752-3.948V0h1.14V-8.568ZM123.2,0l3.048-8.568h-1.188L122.592-1.14h-.024L120.12-8.568H118.9L121.908,0Zm4.884-3.54,1.452-4h.024l1.428,4Zm.852-5.028L125.6,0h1.164l.96-2.58h3.624L132.288,0h1.26L130.2-8.568Zm5.448,0V0h5.676V-.96h-4.536V-8.568ZM146.016-6.06h1.08a3.02,3.02,0,0,0-.27-1.218,2.373,2.373,0,0,0-.672-.846,2.772,2.772,0,0,0-.99-.492,4.578,4.578,0,0,0-1.224-.156,4.4,4.4,0,0,0-1.146.15,3.151,3.151,0,0,0-1,.456,2.308,2.308,0,0,0-.7.78,2.27,2.27,0,0,0-.264,1.122,1.873,1.873,0,0,0,.234.978,1.9,1.9,0,0,0,.624.636,3.626,3.626,0,0,0,.882.4q.492.15,1,.264l1,.222a4.568,4.568,0,0,1,.882.282,1.72,1.72,0,0,1,.624.45,1.075,1.075,0,0,1,.234.72,1.4,1.4,0,0,1-.192.768,1.4,1.4,0,0,1-.5.474,2.28,2.28,0,0,1-.7.246,4.256,4.256,0,0,1-.774.072,3.662,3.662,0,0,1-.936-.12,2.329,2.329,0,0,1-.8-.372,1.909,1.909,0,0,1-.552-.642,1.935,1.935,0,0,1-.21-.93h-1.08a3.013,3.013,0,0,0,.282,1.35,2.588,2.588,0,0,0,.768.936,3.364,3.364,0,0,0,1.128.546,5.024,5.024,0,0,0,1.362.18A5.209,5.209,0,0,0,145.29.054a3.421,3.421,0,0,0,1.074-.444,2.518,2.518,0,0,0,.786-.792,2.151,2.151,0,0,0,.306-1.17,2.149,2.149,0,0,0-.234-1.056,2.085,2.085,0,0,0-.624-.7,3.3,3.3,0,0,0-.882-.438q-.492-.162-1-.282t-1-.222a5.247,5.247,0,0,1-.882-.258,1.735,1.735,0,0,1-.624-.4.893.893,0,0,1-.234-.642,1.392,1.392,0,0,1,.162-.7,1.26,1.26,0,0,1,.432-.45,1.88,1.88,0,0,1,.618-.24,3.485,3.485,0,0,1,.708-.072,2.419,2.419,0,0,1,1.458.414A1.785,1.785,0,0,1,146.016-6.06Z" transform="translate(262 594)"/>
      <path id="Path_6" data-name="Path 6" d="M148.5.5H0v-1H148.5Z" transform="translate(262 600.5)"/>
    </g>
  </g>
</svg>
