<svg xmlns="http://www.w3.org/2000/svg" width="210" height="314.002" viewBox="0 0 210 314.002">
  <defs>
    <style>
      .cls-1 {
        fill: #edb2b2;
        opacity: 0;
      }
    </style>
  </defs>
  <g id="HOL235457_CTA" transform="translate(-262 -281)">
    <rect id="bounding_box" data-name="bounding box" class="cls-1" width="210" height="314" transform="translate(262 281)"/>
    <g id="Outline" transform="translate(0 -5.998)">
      <path id="Path_2" data-name="Path 2" d="M5.892-6.06h1.08A3.02,3.02,0,0,0,6.7-7.278a2.373,2.373,0,0,0-.672-.846,2.772,2.772,0,0,0-.99-.492,4.578,4.578,0,0,0-1.224-.156,4.4,4.4,0,0,0-1.146.15,3.151,3.151,0,0,0-1,.456,2.308,2.308,0,0,0-.7.78A2.27,2.27,0,0,0,.708-6.264a1.873,1.873,0,0,0,.234.978,1.9,1.9,0,0,0,.624.636,3.626,3.626,0,0,0,.882.4q.492.15,1,.264l1,.222a4.568,4.568,0,0,1,.882.282,1.72,1.72,0,0,1,.624.45,1.075,1.075,0,0,1,.234.72A1.4,1.4,0,0,1,6-1.548a1.4,1.4,0,0,1-.5.474,2.28,2.28,0,0,1-.7.246,4.256,4.256,0,0,1-.774.072,3.662,3.662,0,0,1-.936-.12,2.329,2.329,0,0,1-.8-.372,1.909,1.909,0,0,1-.552-.642,1.935,1.935,0,0,1-.21-.93H.444A3.013,3.013,0,0,0,.726-1.47a2.588,2.588,0,0,0,.768.936A3.364,3.364,0,0,0,2.622.012a5.024,5.024,0,0,0,1.362.18A5.209,5.209,0,0,0,5.166.054,3.421,3.421,0,0,0,6.24-.39a2.518,2.518,0,0,0,.786-.792,2.151,2.151,0,0,0,.306-1.17A2.149,2.149,0,0,0,7.1-3.408a2.085,2.085,0,0,0-.624-.7,3.305,3.305,0,0,0-.882-.438q-.492-.162-1-.282t-1-.222A5.247,5.247,0,0,1,2.706-5.3a1.735,1.735,0,0,1-.624-.4.893.893,0,0,1-.234-.642,1.391,1.391,0,0,1,.162-.7,1.26,1.26,0,0,1,.432-.45,1.88,1.88,0,0,1,.618-.24,3.485,3.485,0,0,1,.708-.072A2.419,2.419,0,0,1,5.226-7.4,1.785,1.785,0,0,1,5.892-6.06Zm2.82-2.508V0h1.14V-3.924h4.512V0H15.5V-8.568h-1.14v3.684H9.852V-8.568Zm9.324,4.284A4.939,4.939,0,0,1,18.2-5.562,3.471,3.471,0,0,1,18.732-6.7a2.7,2.7,0,0,1,.924-.81A2.779,2.779,0,0,1,21-7.812a2.779,2.779,0,0,1,1.344.306,2.7,2.7,0,0,1,.924.81A3.471,3.471,0,0,1,23.8-5.562a4.939,4.939,0,0,1,.168,1.278A4.939,4.939,0,0,1,23.8-3.006a3.471,3.471,0,0,1-.528,1.134,2.7,2.7,0,0,1-.924.81A2.779,2.779,0,0,1,21-.756a2.779,2.779,0,0,1-1.344-.306,2.7,2.7,0,0,1-.924-.81A3.471,3.471,0,0,1,18.2-3.006,4.939,4.939,0,0,1,18.036-4.284Zm-1.14,0A5.521,5.521,0,0,0,17.154-2.6a4.249,4.249,0,0,0,.774,1.434,3.714,3.714,0,0,0,1.284.99A4.113,4.113,0,0,0,21,.192a4.113,4.113,0,0,0,1.788-.366,3.714,3.714,0,0,0,1.284-.99A4.249,4.249,0,0,0,24.846-2.6,5.522,5.522,0,0,0,25.1-4.284a5.522,5.522,0,0,0-.258-1.686A4.249,4.249,0,0,0,24.072-7.4a3.778,3.778,0,0,0-1.284-1A4.057,4.057,0,0,0,21-8.772a4.057,4.057,0,0,0-1.788.372,3.778,3.778,0,0,0-1.284,1,4.249,4.249,0,0,0-.774,1.434A5.521,5.521,0,0,0,16.9-4.284Zm10.74-.18V-7.608h2.232a2.1,2.1,0,0,1,1.422.4,1.487,1.487,0,0,1,.45,1.17,1.506,1.506,0,0,1-.45,1.176,2.036,2.036,0,0,1-1.422.4Zm-1.14-4.1V0h1.14V-3.5h2.616a2.61,2.61,0,0,0,1.962-.66,2.544,2.544,0,0,0,.666-1.872A2.523,2.523,0,0,0,32.214-7.9a2.66,2.66,0,0,0-1.962-.666Zm11.136,0V0h1.08V-7.128h.024L41.412,0h.972L45.06-7.128h.024V0h1.08V-8.568H44.6l-2.712,7.2-2.7-7.2Zm11.9,5.028,1.452-4h.024l1.428,4Zm.852-5.028L47.052,0h1.164l.96-2.58H52.8L53.736,0H55L51.648-8.568Zm6.288.96V0h1.14V-7.608h2.856v-.96H53.82v.96Zm10.968,1.62h1.14a3.188,3.188,0,0,0-.408-1.206,2.967,2.967,0,0,0-.78-.87,3.419,3.419,0,0,0-1.068-.528,4.4,4.4,0,0,0-1.272-.18,4.1,4.1,0,0,0-1.746.354,3.608,3.608,0,0,0-1.272.966,4.236,4.236,0,0,0-.774,1.434A5.716,5.716,0,0,0,61.2-4.26a6.042,6.042,0,0,0,.246,1.752,4.047,4.047,0,0,0,.738,1.416A3.418,3.418,0,0,0,63.42-.15a4.13,4.13,0,0,0,1.74.342,3.611,3.611,0,0,0,2.592-.9,3.892,3.892,0,0,0,1.116-2.52h-1.14a3.269,3.269,0,0,1-.216.984,2.375,2.375,0,0,1-.5.786,2.268,2.268,0,0,1-.756.516,2.543,2.543,0,0,1-1,.186,2.82,2.82,0,0,1-1.32-.288,2.578,2.578,0,0,1-.906-.774,3.315,3.315,0,0,1-.522-1.14,5.552,5.552,0,0,1-.168-1.386,4.963,4.963,0,0,1,.168-1.3,3.341,3.341,0,0,1,.522-1.11,2.593,2.593,0,0,1,.9-.774,2.784,2.784,0,0,1,1.314-.288,2.648,2.648,0,0,1,1.554.456A2.12,2.12,0,0,1,67.644-5.988Zm2.64-2.58V0h1.14V-3.924h4.512V0h1.14V-8.568h-1.14v3.684H71.424V-8.568Zm8.712,0V0h1.14V-8.568Zm3.048,0V0h1.08V-6.876h.024L87.624,0h1.248V-8.568h-1.08V-1.62h-.024L83.256-8.568Zm15.084,7.5L97.428,0h.72V-4.512H94.392v.96h2.736a2.913,2.913,0,0,1-.156,1.1,2.5,2.5,0,0,1-.534.888,2.492,2.492,0,0,1-.87.594,3.055,3.055,0,0,1-1.188.216,2.721,2.721,0,0,1-1.266-.282,2.764,2.764,0,0,1-.918-.756,3.369,3.369,0,0,1-.564-1.092,4.323,4.323,0,0,1-.192-1.29,5.356,5.356,0,0,1,.168-1.338,3.586,3.586,0,0,1,.522-1.164,2.692,2.692,0,0,1,.912-.822,2.7,2.7,0,0,1,1.338-.312,3.492,3.492,0,0,1,.906.114,2.493,2.493,0,0,1,.762.342,2.008,2.008,0,0,1,.564.582,2.242,2.242,0,0,1,.312.846h1.14a3.464,3.464,0,0,0-.45-1.29A3.027,3.027,0,0,0,96.8-8.1a3.325,3.325,0,0,0-1.1-.51,5.164,5.164,0,0,0-1.314-.162,3.964,3.964,0,0,0-1.782.378A3.732,3.732,0,0,0,91.326-7.38,4.386,4.386,0,0,0,90.558-5.9,6.076,6.076,0,0,0,90.3-4.116a4.821,4.821,0,0,0,.276,1.62,4.174,4.174,0,0,0,.8,1.38,3.878,3.878,0,0,0,1.284.954A4,4,0,0,0,94.38.192,4.053,4.053,0,0,0,95.88-.1,2.849,2.849,0,0,0,97.128-1.068Zm7.176-3.4V-7.608h2.232a2.1,2.1,0,0,1,1.422.4,1.487,1.487,0,0,1,.45,1.17,1.506,1.506,0,0,1-.45,1.176,2.036,2.036,0,0,1-1.422.4Zm-1.14-4.1V0h1.14V-3.5h2.616a2.61,2.61,0,0,0,1.962-.66,2.544,2.544,0,0,0,.666-1.872,2.523,2.523,0,0,0-.666-1.866,2.66,2.66,0,0,0-1.962-.666Zm8.364,5.028,1.452-4H113l1.428,4Zm.852-5.028L109.044,0h1.164l.96-2.58h3.624L115.728,0h1.26L113.64-8.568Zm9.8,6.432V-8.568h-1.14V-2.3a1.933,1.933,0,0,1-.294,1.128,1.224,1.224,0,0,1-1.074.42,1.636,1.636,0,0,1-.69-.126.99.99,0,0,1-.42-.354,1.48,1.48,0,0,1-.21-.54,3.628,3.628,0,0,1-.06-.684v-.36h-1.14v.528A2.472,2.472,0,0,0,117.8-.438a2.543,2.543,0,0,0,1.848.63,3.21,3.21,0,0,0,1.206-.2,2.068,2.068,0,0,0,.78-.528,1.963,1.963,0,0,0,.42-.75A2.95,2.95,0,0,0,122.184-2.136Zm3.348-1.4,1.452-4h.024l1.428,4Zm.852-5.028L123.048,0h1.164l.96-2.58H128.8L129.732,0h1.26l-3.348-8.568Zm5.472,0V0h1.08V-7.128h.024L135.636,0h.972l2.676-7.128h.024V0h1.08V-8.568h-1.56l-2.712,7.2-2.7-7.2Zm11.9,5.028,1.452-4h.024l1.428,4Zm.852-5.028L141.276,0h1.164l.96-2.58h3.624L147.96,0h1.26l-3.348-8.568Zm10.4,2.508h1.08a3.02,3.02,0,0,0-.27-1.218,2.373,2.373,0,0,0-.672-.846,2.772,2.772,0,0,0-.99-.492,4.578,4.578,0,0,0-1.224-.156,4.4,4.4,0,0,0-1.146.15,3.151,3.151,0,0,0-1,.456,2.308,2.308,0,0,0-.7.78,2.27,2.27,0,0,0-.264,1.122,1.873,1.873,0,0,0,.234.978,1.9,1.9,0,0,0,.624.636,3.626,3.626,0,0,0,.882.4q.492.15,1,.264l1,.222a4.568,4.568,0,0,1,.882.282,1.72,1.72,0,0,1,.624.45,1.075,1.075,0,0,1,.234.72,1.4,1.4,0,0,1-.192.768,1.4,1.4,0,0,1-.5.474,2.28,2.28,0,0,1-.7.246,4.256,4.256,0,0,1-.774.072,3.662,3.662,0,0,1-.936-.12,2.329,2.329,0,0,1-.8-.372,1.909,1.909,0,0,1-.552-.642,1.935,1.935,0,0,1-.21-.93h-1.08a3.013,3.013,0,0,0,.282,1.35,2.588,2.588,0,0,0,.768.936,3.364,3.364,0,0,0,1.128.546,5.024,5.024,0,0,0,1.362.18A5.209,5.209,0,0,0,154.29.054a3.421,3.421,0,0,0,1.074-.444,2.518,2.518,0,0,0,.786-.792,2.151,2.151,0,0,0,.306-1.17,2.149,2.149,0,0,0-.234-1.056,2.085,2.085,0,0,0-.624-.7,3.3,3.3,0,0,0-.882-.438q-.492-.162-1-.282t-1-.222a5.247,5.247,0,0,1-.882-.258,1.735,1.735,0,0,1-.624-.4.893.893,0,0,1-.234-.642,1.392,1.392,0,0,1,.162-.7,1.26,1.26,0,0,1,.432-.45,1.88,1.88,0,0,1,.618-.24,3.485,3.485,0,0,1,.708-.072,2.419,2.419,0,0,1,1.458.414A1.785,1.785,0,0,1,155.016-6.06Z" transform="translate(262 594)"/>
      <path id="Path_1" data-name="Path 1" d="M157.5.5H0v-1H157.5Z" transform="translate(262 600.5)"/>
    </g>
  </g>
</svg>
